# xmcd
#
# Track frame offsets:
# 150
# 21378
# 34718
# 56335
# 75612
# 97011
# 140695
# 157468
# 176519
# 195400
# 210978
# 226667
# 240018
#
# Disc length: 3454 seconds
#
#
# Revision: 0
# Processed by: cddbd v1.5.2PL0 Copyright (c) Steve Scherf et al.
# Submitted via: FreeRIP 2.60 
#
DISCID=9f0d7c0d
DTITLE=Hendrik Freischlader Badn - Get Closer
DYEAR=1900
DGENRE=Blues
TTITLE0=Someone like me
TTITLE1=You
TTITLE2=Too cool for me
TTITLE3=Keep playin
TTITLE4=I give up on loving you
TTITLE5=She's back (for another try)
TTITLE6=Sometimes
TTITLE7=As long as
TTITLE8=Not of that kind
TTITLE9=Blues music
TTITLE10=Busi
TTITLE11=Livin it up
TTITLE12=Get closer
EXTD=
EXTT0=
EXTT1=
EXTT2=
EXTT3=
EXTT4=
EXTT5=
EXTT6=
EXTT7=
EXTT8=
EXTT9=
EXTT10=
EXTT11=
EXTT12=
PLAYORDER=
